<?xml version="1.0" standalone="no"?>
<!DOCTYPE svg PUBLIC "-//W3C//DTD SVG 20010904//EN"
 "http://www.w3.org/TR/2001/REC-SVG-20010904/DTD/svg10.dtd">
<svg version="1.0" xmlns="http://www.w3.org/2000/svg"
 width="746.000000pt" height="141.000000pt" viewBox="0 0 746.000000 141.000000"
 preserveAspectRatio="xMidYMid meet">

<g transform="translate(0.000000,141.000000) scale(0.100000,-0.100000)"
fill="#9ca3af" stroke="none">
<path d="M3210 705 l0 -675 30 0 30 0 0 675 0 675 -30 0 -30 0 0 -675z"/>
<path d="M2365 902 l-589 -337 171 -3 171 -2 426 242 425 243 1 98 c0 53 -3
97 -7 97 -5 0 -273 -152 -598 -338z"/>
<path d="M6400 1175 c0 -18 5 -25 20 -25 15 0 20 7 20 25 0 18 -5 25 -20 25
-15 0 -20 -7 -20 -25z"/>
<path d="M6470 1175 c0 -20 5 -25 25 -25 20 0 25 5 25 25 0 20 -5 25 -25 25
-20 0 -25 -5 -25 -25z"/>
<path d="M4766 1109 c-44 -12 -66 -38 -66 -78 0 -49 7 -57 81 -94 74 -37 90
-69 44 -87 -29 -11 -38 -8 -72 22 -17 16 -25 18 -42 9 -27 -15 -26 -27 5 -56
34 -31 92 -40 137 -22 39 17 57 42 57 82 0 44 -19 65 -86 95 -70 32 -88 55
-59 76 26 19 42 17 65 -6 14 -14 28 -18 45 -14 30 7 31 15 8 43 -22 26 -77 41
-117 30z"/>
<path d="M5051 1107 c-41 -14 -69 -50 -82 -103 -10 -46 -2 -117 18 -157 18
-36 75 -61 122 -53 35 5 91 50 91 72 0 21 -43 25 -65 5 -32 -29 -42 -32 -69
-22 -44 17 -59 148 -22 195 22 28 54 29 80 2 27 -26 66 -26 66 1 0 18 -45 63
-64 63 -8 0 -20 2 -28 4 -7 3 -28 0 -47 -7z"/>
<path d="M6423 1109 c-18 -3 -39 -12 -47 -18 -48 -40 -63 -178 -26 -239 36
-59 120 -77 178 -36 71 49 76 217 8 273 -22 19 -76 28 -113 20z m84 -75 c23
-36 23 -121 0 -157 -13 -21 -26 -27 -52 -27 -47 0 -65 28 -65 105 0 77 18 105
65 105 26 0 39 -6 52 -26z"/>
<path d="M3510 955 l0 -155 75 0 c126 0 168 40 168 155 0 113 -46 155 -172
155 l-71 0 0 -155z m157 81 c24 -21 27 -31 27 -81 0 -50 -3 -60 -27 -81 -18
-15 -41 -24 -63 -24 l-34 0 0 105 0 105 34 0 c22 0 45 -9 63 -24z"/>
<path d="M3830 955 l0 -155 105 0 105 0 0 25 c0 24 -2 25 -75 25 l-75 0 0 45
0 45 56 0 c52 0 55 1 52 23 -3 19 -10 22 -55 25 l-53 3 0 35 0 34 75 0 c73 0
75 1 75 25 l0 25 -105 0 -105 0 0 -155z"/>
<path d="M4110 1000 c0 -136 13 -174 66 -196 54 -23 116 -11 149 27 24 29 25
36 25 155 l0 124 -30 0 -30 0 0 -120 c0 -115 -1 -120 -24 -135 -29 -19 -72
-11 -86 15 -6 10 -10 68 -10 129 l0 111 -30 0 -30 0 0 -110z"/>
<path d="M4420 1085 c0 -22 4 -25 40 -25 l40 0 0 -130 0 -130 30 0 30 0 0 130
0 130 40 0 c36 0 40 3 40 25 l0 25 -110 0 -110 0 0 -25z"/>
<path d="M5270 955 l0 -155 30 0 30 0 0 65 0 65 60 0 60 0 0 -65 0 -65 30 0
30 0 0 155 0 155 -30 0 -30 0 0 -60 0 -60 -60 0 -60 0 0 60 0 60 -30 0 -30 0
0 -155z"/>
<path d="M5600 955 l0 -155 105 0 105 0 0 25 c0 24 -2 25 -76 25 l-75 0 3 43
3 42 53 3 c48 3 52 5 52 28 0 23 -3 24 -55 24 l-55 0 0 35 0 35 75 0 c73 0 75
1 75 25 l0 25 -105 0 -105 0 0 -155z"/>
<path d="M6030 954 l0 -156 96 4 c86 3 98 5 115 27 27 33 25 87 -5 114 -24 22
-24 23 -5 35 30 19 26 85 -7 111 -22 17 -41 21 -110 21 l-84 0 0 -156z m159
88 c17 -31 -5 -52 -54 -52 -45 0 -45 0 -45 35 0 35 0 35 45 35 32 0 47 -5 54
-18z m-8 -112 c24 -13 26 -65 3 -74 -9 -3 -33 -6 -55 -6 l-39 0 0 45 c0 45 0
45 36 45 19 0 44 -5 55 -10z"/>
<path d="M6660 955 l0 -155 30 0 30 0 0 60 c0 59 0 60 28 60 25 0 32 -7 55
-60 23 -55 28 -60 56 -60 17 0 31 2 31 5 0 3 -14 33 -31 66 l-30 61 25 23 c26
24 34 72 20 110 -12 29 -60 45 -139 45 l-75 0 0 -155z m144 99 c10 -4 16 -18
16 -35 0 -32 -27 -49 -76 -49 -22 0 -24 4 -24 45 0 45 0 45 34 45 19 0 41 -3
50 -6z"/>
<path d="M6986 1089 c-20 -16 -26 -29 -26 -58 0 -46 25 -72 95 -99 55 -22 72
-55 39 -79 -25 -19 -38 -16 -73 13 -25 21 -34 23 -51 14 -26 -14 -25 -21 8
-52 70 -66 192 -32 192 55 0 46 -18 68 -85 98 -69 31 -78 39 -69 63 10 26 44
30 74 8 17 -13 36 -19 49 -15 56 14 -7 73 -79 73 -33 0 -55 -6 -74 -21z"/>
<path d="M7250 955 l0 -155 105 0 105 0 0 25 c0 24 -2 25 -75 25 l-75 0 0 45
0 45 50 0 c47 0 50 2 50 25 0 23 -3 25 -50 25 l-50 0 0 35 0 35 70 0 c68 0 70
1 70 25 l0 25 -100 0 -100 0 0 -155z"/>
<path d="M1445 746 c41 -28 287 -166 296 -166 19 0 169 92 164 100 -3 5 -34
24 -70 44 l-66 36 -172 0 c-147 0 -169 -2 -152 -14z"/>
<path d="M1052 556 l-333 -191 171 -3 172 -2 218 124 c120 69 232 134 249 144
l32 19 -68 40 c-37 22 -77 45 -88 50 -17 8 -76 -22 -353 -181z"/>
<path d="M3586 610 c-72 -22 -109 -108 -87 -205 16 -71 57 -110 116 -110 28 0
50 6 64 19 19 17 21 17 21 3 0 -10 8 -17 20 -17 18 0 20 7 20 80 l0 81 -57 -3
c-51 -3 -58 -6 -61 -25 -3 -20 1 -23 27 -23 45 0 40 -34 -8 -60 -75 -39 -125
144 -53 200 32 26 48 25 75 -3 23 -24 67 -26 67 -3 0 16 -48 66 -64 66 -6 0
-20 2 -31 5 -11 2 -33 0 -49 -5z"/>
<path d="M4207 610 c-62 -19 -88 -65 -88 -155 0 -98 36 -149 112 -161 45 -7
98 21 122 64 25 43 26 145 3 190 -28 53 -91 80 -149 62z m89 -75 c11 -16 17
-46 17 -80 0 -72 -21 -105 -68 -105 -47 0 -66 31 -66 105 0 74 19 105 66 105
26 0 39 -6 51 -25z"/>
<path d="M3820 455 l0 -155 30 0 c29 0 29 1 32 63 3 59 4 62 28 62 21 0 30
-10 54 -62 28 -59 32 -63 63 -63 l33 0 -33 66 -33 66 28 28 c38 38 38 82 -1
121 -28 28 -34 29 -115 29 l-86 0 0 -155z m164 83 c19 -30 -4 -53 -58 -56
l-46 -3 0 41 0 41 46 -3 c31 -2 51 -9 58 -20z"/>
<path d="M4450 486 c0 -119 1 -126 25 -155 33 -38 95 -50 149 -27 53 22 66 60
66 196 l0 110 -30 0 -30 0 0 -113 c0 -128 -9 -150 -58 -150 -56 0 -62 13 -62
144 l0 119 -30 0 -30 0 0 -124z"/>
<path d="M4780 456 l0 -156 30 0 c30 0 30 0 30 59 l0 59 56 7 c73 9 104 37
104 93 0 24 -8 49 -19 63 -17 21 -29 24 -110 27 l-91 4 0 -156z m158 70 c4
-36 -3 -43 -55 -52 l-43 -7 0 47 0 47 48 -3 c44 -3 47 -5 50 -32z"/>
<path d="M512 470 c87 -50 162 -90 168 -90 11 0 149 76 163 89 5 5 -24 27 -63
50 l-72 41 -176 0 -177 0 157 -90z"/>
<path d="M157 449 l-157 -91 0 -99 c0 -55 3 -98 7 -96 104 57 493 279 493 281
0 7 -163 96 -174 95 -6 0 -82 -41 -169 -90z"/>
</g>
</svg>
