<?xml version="1.0" standalone="no"?>
<!DOCTYPE svg PUBLIC "-//W3C//DTD SVG 20010904//EN"
 "http://www.w3.org/TR/2001/REC-SVG-20010904/DTD/svg10.dtd">
<svg version="1.0" xmlns="http://www.w3.org/2000/svg"
 width="1833.000000pt" height="643.000000pt" viewBox="0 0 1833.000000 643.000000"
 preserveAspectRatio="xMidYMid meet">

<g transform="translate(0.000000,643.000000) scale(0.100000,-0.100000)"
fill="#9ca3af" stroke="none">
<path d="M2770 5834 c0 -3 9 -19 20 -34 14 -20 31 -30 53 -32 27 -2 36 2 55
30 12 18 22 35 22 37 0 3 -34 5 -75 5 -41 0 -75 -3 -75 -6z"/>
<path d="M2943 5766 c-27 -17 -33 -27 -33 -58 0 -30 6 -41 31 -58 16 -12 32
-20 35 -17 3 2 4 38 2 79 l-3 75 -32 -21z"/>
<path d="M2710 5705 c0 -41 3 -75 6 -75 3 0 19 9 35 21 22 15 29 28 29 54 0
26 -7 39 -29 54 -16 12 -32 21 -35 21 -3 0 -6 -34 -6 -75z"/>
<path d="M2806 5738 c-9 -12 -16 -28 -16 -35 0 -18 37 -53 55 -53 19 0 55 36
55 55 0 21 -36 55 -59 55 -11 0 -27 -10 -35 -22z"/>
<path d="M2791 5607 l-20 -32 27 -6 c15 -4 20 -7 11 -8 -25 -2 -69 -56 -75
-92 -6 -43 24 -95 66 -113 30 -12 30 -12 10 -31 -27 -25 -25 -49 6 -74 15 -12
22 -21 16 -21 -7 0 -19 -11 -28 -25 -15 -23 -15 -27 0 -50 28 -42 96 -24 96
25 0 20 -25 50 -42 50 -6 0 1 9 16 21 31 24 33 52 6 79 -15 15 -16 20 -6 20 8
0 28 14 45 31 55 54 38 144 -33 175 l-31 13 33 1 c38 0 38 3 12 40 -29 41 -82
40 -109 -3z"/>
<path d="M2292 5519 c-33 -12 -40 -58 -12 -81 31 -25 57 -23 76 7 30 47 -10
94 -64 74z"/>
<path d="M3350 5517 c-56 -28 -21 -112 38 -91 22 8 27 16 27 43 0 44 -29 66
-65 48z"/>
<path d="M2400 5491 c-23 -44 -5 -81 40 -81 33 0 50 17 50 50 0 14 -5 31 -12
38 -19 19 -66 15 -78 -7z"/>
<path d="M3212 5498 c-15 -15 -16 -60 0 -76 18 -18 53 -14 73 8 27 30 10 74
-30 78 -17 2 -36 -3 -43 -10z"/>
<path d="M2173 5490 c-34 -14 -33 -76 2 -92 55 -25 103 52 53 86 -25 18 -25
18 -55 6z"/>
<path d="M3460 5480 c-11 -11 -20 -29 -20 -39 0 -20 34 -51 57 -51 40 0 59 81
24 100 -28 14 -38 13 -61 -10z"/>
<path d="M5680 4605 l0 -895 110 0 110 0 2 748 3 747 280 -745 280 -745 101
-3 101 -3 279 744 279 744 5 -741 5 -741 113 -3 112 -3 0 896 0 895 -164 0
c-122 0 -165 -3 -168 -12 -125 -336 -553 -1465 -558 -1471 -4 -4 -133 327
-286 735 l-280 743 -162 3 -162 2 0 -895z"/>
<path d="M7760 5370 l0 -130 105 0 105 0 0 130 0 130 -105 0 -105 0 0 -130z"/>
<path d="M9570 5370 l0 -131 108 3 107 3 3 128 3 127 -111 0 -110 0 0 -130z"/>
<path d="M2520 5450 c-23 -23 -24 -33 -10 -61 12 -22 59 -26 78 -7 19 19 15
66 -7 78 -28 14 -38 13 -61 -10z"/>
<path d="M3100 5450 c-36 -36 -20 -80 30 -80 14 0 31 5 38 12 19 19 15 66 -7
78 -28 14 -38 13 -61 -10z"/>
<path d="M2642 5424 c-41 -29 -23 -84 28 -84 33 0 50 17 50 50 0 19 -8 30 -25
38 -32 15 -26 15 -53 -4z"/>
<path d="M2992 5424 c-41 -29 -23 -84 28 -84 50 0 66 44 30 80 -24 24 -29 24
-58 4z"/>
<path d="M2040 5411 c-14 -27 -13 -47 6 -65 24 -24 61 -20 80 9 15 23 15 27 0
50 -21 31 -70 35 -86 6z"/>
<path d="M3571 5416 c-16 -19 -10 -66 10 -79 44 -28 95 25 69 72 -13 25 -61
29 -79 7z"/>
<path d="M2273 5389 c-86 -16 -167 -78 -197 -151 -24 -56 -20 -145 9 -237 25
-79 34 -89 68 -75 13 5 12 15 -10 72 -18 47 -26 88 -27 138 -1 92 27 139 109
179 48 24 64 27 118 22 34 -2 105 -19 158 -36 105 -34 247 -57 262 -42 5 5 7
17 5 27 -3 15 -16 20 -71 26 -37 3 -122 22 -190 41 -143 41 -178 46 -234 36z"/>
<path d="M3308 5389 c-27 -4 -76 -17 -110 -28 -92 -30 -187 -51 -235 -51 -41
0 -43 -1 -43 -30 0 -16 1 -30 3 -30 48 0 194 29 278 55 61 19 130 35 153 35
100 0 193 -63 215 -148 13 -45 0 -127 -30 -205 -16 -40 -17 -52 -7 -59 27 -17
43 -1 66 67 62 180 26 299 -110 363 -72 35 -113 42 -180 31z"/>
<path d="M11337 5394 c-4 -4 -7 -92 -7 -196 l0 -188 -105 0 -105 0 0 -95 0
-95 104 0 105 0 4 -462 c4 -500 5 -512 58 -573 49 -55 100 -69 268 -69 l146
-1 3 93 3 92 -83 0 c-97 0 -154 13 -168 40 -6 12 -10 178 -10 449 l0 431 130
0 130 0 0 95 0 95 -130 0 -130 0 -2 193 -3 192 -101 3 c-55 1 -103 0 -107 -4z"/>
<path d="M1964 5309 c-17 -19 -17 -23 -3 -47 21 -38 62 -41 85 -8 15 24 15 28
0 51 -20 31 -56 33 -82 4z"/>
<path d="M3644 5305 c-15 -23 -15 -27 0 -50 10 -15 26 -25 41 -25 15 0 31 10
41 25 15 23 15 27 0 50 -10 15 -26 25 -41 25 -15 0 -31 -10 -41 -25z"/>
<path d="M1942 5204 c-50 -34 -2 -111 53 -86 34 16 38 66 7 90 -21 16 -33 15
-60 -4z"/>
<path d="M3682 5204 c-12 -8 -22 -26 -22 -39 0 -24 33 -55 57 -55 18 0 53 37
53 55 0 18 -35 55 -53 55 -7 0 -23 -7 -35 -16z"/>
<path d="M2804 5099 c-17 -19 -17 -23 -3 -47 18 -33 54 -40 80 -16 23 21 24
47 3 68 -22 22 -57 20 -80 -5z"/>
<path d="M1956 5077 c-22 -16 -18 -65 5 -80 23 -14 67 0 74 24 8 25 -19 69
-43 69 -10 0 -26 -6 -36 -13z"/>
<path d="M3665 5070 c-24 -27 -13 -68 22 -76 33 -9 57 6 61 38 6 50 -49 76
-83 38z"/>
<path d="M8734 5025 c-106 -23 -195 -80 -255 -164 l-39 -54 0 101 0 102 -100
0 -100 0 0 -650 0 -650 105 0 104 0 3 428 c3 416 4 428 25 482 47 116 123 185
238 215 126 32 239 11 309 -58 70 -71 69 -66 73 -594 l4 -473 105 0 104 0 0
448 c0 246 -5 479 -10 517 -28 199 -127 312 -309 351 -81 17 -176 17 -257 -1z"/>
<path d="M10430 5033 c-143 -14 -268 -64 -340 -135 -65 -65 -93 -133 -93 -229
0 -69 5 -88 32 -144 62 -125 149 -169 491 -246 222 -49 307 -101 317 -193 7
-60 -1 -89 -38 -130 -51 -58 -122 -79 -269 -80 -107 0 -133 3 -184 23 -81 32
-132 85 -153 161 l-16 60 -104 0 c-118 0 -112 6 -88 -98 20 -86 48 -137 109
-197 58 -58 133 -97 233 -122 92 -23 303 -22 397 1 211 51 334 178 344 357 10
170 -66 278 -244 345 -36 13 -141 42 -233 63 -209 49 -276 74 -323 121 -87 86
-41 203 96 242 65 18 212 15 275 -6 71 -24 133 -85 150 -149 l14 -47 105 0
105 0 -7 50 c-18 135 -91 238 -210 294 -89 43 -256 70 -366 59z"/>
<path d="M12530 5033 c-142 -24 -256 -107 -334 -243 l-31 -55 -3 138 -3 137
-99 0 -100 0 2 -647 3 -648 105 0 105 0 6 380 c6 411 7 418 66 526 61 112 201
189 345 189 l48 0 0 115 0 115 -42 -1 c-24 -1 -54 -4 -68 -6z"/>
<path d="M2427 4968 c-21 -66 -21 -114 -2 -148 21 -37 18 -46 -6 -16 -12 15
-30 26 -44 26 -48 0 -74 -80 -37 -113 24 -22 32 -21 32 3 0 28 30 38 46 15 12
-15 11 -20 -3 -30 -15 -11 -15 -13 5 -24 27 -14 18 -43 -12 -39 -16 2 -21 -2
-21 -22 -1 -23 -4 -25 -46 -24 -37 0 -57 8 -98 38 -33 23 -59 35 -70 31 -17
-5 -16 -15 14 -166 18 -88 35 -162 37 -165 3 -2 45 9 94 25 185 60 290 76 504
76 220 -1 347 -19 525 -77 55 -18 104 -32 110 -33 5 0 24 72 41 160 30 144 31
161 17 172 -13 10 -22 7 -52 -16 -68 -53 -115 -70 -155 -55 -11 4 -14 14 -9
37 6 29 5 31 -10 19 -17 -14 -37 -9 -37 10 0 6 8 16 17 23 15 11 15 15 4 29
-11 12 -11 19 -1 30 15 19 40 9 40 -15 0 -25 26 -24 40 0 16 30 12 76 -8 94
-25 23 -48 21 -74 -5 -19 -19 -21 -19 -14 -2 28 68 28 73 6 139 -24 73 -31 74
-71 8 -14 -22 -21 -50 -21 -78 l1 -43 -24 24 c-29 29 -49 30 -75 4 -24 -24
-26 -58 -4 -89 l17 -24 17 23 c15 21 18 21 33 5 18 -17 24 -50 8 -40 -16 9
-22 -13 -9 -34 16 -26 3 -39 -22 -23 -17 11 -20 10 -20 -8 0 -17 -7 -20 -47
-20 -59 0 -103 25 -139 80 -15 22 -32 40 -40 40 -7 0 -18 2 -26 5 -8 3 -23
-11 -38 -36 -32 -52 -93 -89 -148 -89 -38 0 -42 2 -42 25 0 14 -4 25 -10 25
-5 0 -10 -7 -10 -15 0 -8 -6 -15 -14 -15 -17 0 -29 27 -16 35 16 10 11 33 -6
37 -14 3 -13 6 5 28 20 24 22 24 35 7 13 -17 15 -17 30 5 9 12 16 29 16 38 0
27 -30 60 -54 60 -34 0 -58 -33 -72 -98 -16 -73 -19 -21 -4 61 12 62 2 98 -42
151 l-24 28 -17 -54z m750 -170 c-3 -8 -6 -5 -6 6 -1 11 2 17 5 13 3 -3 4 -12
1 -19z"/>
<path d="M2773 4961 c29 -46 35 -50 72 -50 38 -1 42 2 67 49 l28 50 -99 0 -99
0 31 -49z"/>
<path d="M7760 4360 l0 -650 105 0 105 0 0 650 0 650 -105 0 -105 0 0 -650z"/>
<path d="M9570 4360 l0 -650 105 0 105 0 0 650 0 650 -105 0 -105 0 0 -650z"/>
<path d="M12709 4963 c10 -26 124 -309 251 -628 128 -319 235 -590 237 -602 8
-33 -82 -252 -119 -292 -56 -60 -121 -74 -211 -47 l-47 14 0 -98 0 -98 44 -11
c99 -25 223 -6 296 44 47 33 117 133 155 225 29 70 585 1529 585 1536 0 3 -50
3 -112 2 l-112 -3 -181 -527 c-99 -289 -182 -524 -185 -522 -2 3 -88 240 -190
527 l-185 522 -123 3 -122 3 19 -48z"/>
<path d="M1996 4967 c-38 -28 -13 -97 34 -97 22 0 50 32 50 57 0 23 -29 53
-51 53 -9 0 -23 -6 -33 -13z"/>
<path d="M3627 4962 c-22 -24 -21 -55 1 -75 35 -32 82 -10 82 38 0 49 -52 71
-83 37z"/>
<path d="M2670 4845 c0 -74 3 -95 14 -95 7 0 19 6 25 14 6 8 24 19 39 25 24
10 28 17 27 51 -1 36 -5 43 -48 70 -26 16 -50 30 -52 30 -3 0 -5 -43 -5 -95z"/>
<path d="M2960 4909 c-39 -26 -44 -34 -45 -67 -1 -34 3 -40 43 -65 25 -15 46
-26 49 -24 2 3 2 45 1 95 l-3 91 -45 -30z"/>
<path d="M2158 4908 c-32 -11 -58 -25 -58 -33 0 -7 7 -29 15 -49 24 -57 47
-48 79 30 15 37 26 68 24 69 -2 1 -29 -6 -60 -17z"/>
<path d="M3470 4922 c0 -4 11 -34 24 -67 30 -73 54 -83 79 -30 9 20 17 42 17
49 0 8 -26 23 -60 34 -33 12 -60 18 -60 14z"/>
<path d="M2810 4880 c-11 -11 -20 -26 -20 -33 0 -24 31 -57 54 -57 26 0 56 28
56 53 0 21 -35 57 -55 57 -8 0 -24 -9 -35 -20z"/>
<path d="M2233 4810 c-27 -31 -31 -42 -27 -72 5 -30 12 -38 55 -56 27 -11 49
-16 49 -11 0 19 -33 164 -39 170 -3 3 -20 -11 -38 -31z"/>
<path d="M3393 4758 c-11 -51 -19 -94 -18 -96 1 -1 25 8 54 21 29 12 49 25 46
28 -3 4 -1 18 4 32 9 22 5 31 -28 67 l-38 42 -20 -94z"/>
<path d="M2110 4760 c-11 -11 -20 -27 -20 -35 0 -18 35 -55 53 -55 24 0 57 31
57 54 0 26 -28 56 -53 56 -9 0 -26 -9 -37 -20z"/>
<path d="M3507 4762 c-10 -10 -17 -28 -17 -40 0 -21 34 -52 57 -52 18 0 53 37
53 55 0 21 -36 55 -58 55 -11 0 -26 -8 -35 -18z"/>
<path d="M2622 4378 c-164 -20 -404 -96 -429 -135 -21 -32 -7 -73 30 -91 25
-12 36 -11 100 13 111 41 257 73 394 86 206 20 451 -12 650 -86 64 -24 75 -25
100 -13 37 18 51 59 31 91 -27 40 -227 104 -413 132 -110 16 -345 18 -463 3z"/>
<path d="M2055 4271 c-43 -27 -82 -71 -99 -113 -16 -37 -22 -142 -10 -173 6
-14 9 -14 33 1 86 55 121 115 121 211 0 87 -7 98 -45 74z"/>
<path d="M3586 4268 c-14 -53 -6 -124 20 -176 24 -49 92 -112 120 -112 18 0
27 91 14 141 -15 57 -52 111 -99 143 -45 32 -47 32 -55 4z"/>
<path d="M2610 4196 c-319 -57 -572 -187 -795 -411 -202 -201 -337 -447 -400
-730 -26 -113 -31 -410 -11 -536 29 -175 115 -405 204 -543 223 -348 582 -590
982 -662 129 -23 381 -23 510 0 289 52 548 186 762 394 224 218 368 487 424
793 24 129 23 370 0 504 -56 314 -213 601 -448 820 -191 177 -429 300 -693
360 -97 22 -433 29 -535 11z m520 -51 c563 -124 987 -552 1101 -1108 157 -771
-346 -1517 -1128 -1674 -131 -26 -414 -24 -543 5 -505 111 -899 461 -1060 940
-49 146 -61 217 -67 398 -7 204 8 316 67 494 67 204 169 375 318 532 228 239
506 381 847 432 70 10 392 -3 465 -19z"/>
<path d="M2755 4081 c-146 -66 -154 -281 -15 -360 22 -12 40 -29 40 -37 0 -12
-47 -14 -305 -14 l-305 0 0 -55 c0 -30 2 -55 5 -55 3 0 102 -16 221 -35 124
-20 251 -35 300 -35 l84 0 0 -134 0 -134 30 -12 c24 -10 36 -10 60 0 l30 12 0
134 0 134 84 0 c47 0 179 15 302 35 121 19 222 35 227 35 4 0 7 25 7 55 l0 55
-310 0 c-257 0 -310 2 -310 14 0 7 14 19 30 26 72 30 130 139 115 217 -26 138
-164 212 -290 154z m135 -76 c73 -38 94 -125 43 -185 l-26 -32 -14 26 c-24 46
-93 43 -108 -3 -14 -46 -65 23 -65 87 0 29 7 49 27 72 42 50 90 62 143 35z"/>
<path d="M1810 3591 c0 -15 131 -129 200 -174 36 -24 144 -86 240 -139 133
-73 196 -101 260 -118 100 -25 212 -78 267 -125 54 -46 108 -49 177 -10 33 19
44 30 35 35 -345 184 -934 479 -999 500 -92 30 -180 45 -180 31z"/>
<path d="M3765 3585 c-33 -7 -85 -23 -115 -35 -67 -26 -750 -373 -750 -380 0
-4 35 -23 78 -44 l78 -38 40 20 c21 11 50 23 64 27 35 11 453 240 525 289 62
41 185 153 185 168 0 11 -33 9 -105 -7z"/>
<path d="M3459 3169 c-132 -14 -285 -67 -444 -154 l-90 -49 35 -14 c19 -8 87
-28 150 -44 133 -35 161 -47 184 -82 l16 -26 49 19 c27 10 84 43 125 74 114
83 282 138 566 184 58 9 109 20 113 23 10 9 -213 46 -348 60 -142 13 -279 17
-356 9z"/>
<path d="M1770 3156 c-147 -23 -293 -67 -260 -79 8 -3 78 -17 155 -32 244 -47
344 -83 511 -185 109 -67 200 -93 332 -94 121 -1 114 2 127 -61 5 -27 -4 -43
-65 -125 -38 -51 -70 -95 -70 -96 0 -2 10 -13 23 -24 76 -72 255 -112 407 -90
105 15 161 35 206 75 l39 35 -89 83 -88 83 16 38 c9 21 16 41 16 44 0 2 -21 2
-47 -1 -45 -6 -47 -5 -28 9 33 25 64 28 134 11 36 -9 78 -13 93 -10 15 3 41
-2 59 -11 26 -13 34 -14 41 -4 14 23 9 44 -19 75 -35 38 -53 47 -129 67 -33 9
-107 36 -164 62 -79 35 -111 44 -135 40 -26 -5 -36 -1 -60 24 -59 62 -179 113
-353 151 -124 27 -516 36 -652 15z"/>
<path d="M1947 2872 c-24 -26 -21 -70 8 -117 27 -43 31 -65 14 -65 -6 0 -25
-10 -42 -22 -65 -46 -305 -168 -332 -168 -31 0 -65 -46 -65 -87 1 -87 87 -122
153 -63 19 17 39 30 44 30 5 0 31 11 59 24 27 13 90 43 139 66 50 23 98 46
107 51 30 15 36 11 70 -48 41 -69 76 -86 117 -56 29 22 40 75 20 99 -6 8 -26
18 -43 22 -60 16 -43 35 99 112 l136 74 -68 16 c-37 9 -93 28 -124 42 l-57 26
-60 -34 c-66 -38 -81 -32 -59 25 10 26 8 34 -9 58 -27 35 -82 43 -107 15z"/>
<path d="M3637 2852 c-20 -22 -22 -73 -5 -90 9 -9 9 -15 -1 -24 -10 -11 -28
-5 -91 28 -77 41 -79 41 -105 24 -14 -9 -44 -23 -66 -30 -30 -10 -39 -18 -39
-36 0 -12 -3 -29 -6 -37 -4 -11 24 -31 101 -72 58 -31 105 -61 103 -67 -2 -6
-19 -16 -38 -22 -68 -22 -80 -108 -18 -130 41 -14 74 6 103 64 25 50 40 58 73
41 9 -5 34 -16 55 -25 85 -36 116 -50 190 -87 43 -21 90 -47 104 -59 48 -38
115 -22 138 32 22 53 -15 128 -63 128 -14 0 -282 129 -292 141 -4 4 -59 36
-78 45 -2 1 10 29 27 62 31 62 32 81 3 115 -20 23 -74 22 -95 -1z"/>
<path d="M2155 2243 c-34 -85 -39 -111 -43 -195 -2 -54 -2 -98 1 -98 3 0 33
16 67 35 35 20 64 34 65 33 1 -2 14 -41 28 -88 52 -165 88 -206 327 -370 74
-50 153 -109 175 -131 l41 -39 59 51 c33 28 112 85 175 127 153 100 219 155
253 208 29 47 77 179 77 213 0 28 10 27 79 -9 l59 -29 5 42 c14 107 7 196 -20
265 -14 37 -29 71 -33 75 -10 12 -179 -103 -222 -151 -20 -23 -46 -59 -58 -82
l-20 -40 39 0 c21 0 52 -3 69 -6 29 -6 30 -7 20 -43 -27 -97 -90 -182 -183
-246 -48 -33 -59 -37 -96 -32 -52 7 -88 32 -111 78 -16 30 -18 65 -18 277 l0
242 -60 0 -60 0 0 -252 c0 -284 -3 -298 -73 -331 -51 -25 -88 -21 -140 14 -90
59 -185 194 -190 267 -2 26 0 27 61 30 36 2 62 7 62 14 0 17 -40 79 -74 117
-29 31 -199 151 -215 151 -4 0 -25 -44 -46 -97z"/>
<path d="M1823 4124 c-50 -54 -67 -92 -67 -154 0 -58 19 -130 35 -130 5 0 27
19 49 41 46 48 75 130 65 182 -12 59 -26 97 -37 97 -6 0 -26 -16 -45 -36z"/>
<path d="M3792 4121 c-18 -58 -15 -136 7 -179 11 -20 37 -54 59 -76 l40 -39
16 54 c22 74 20 117 -10 177 -22 44 -77 102 -96 102 -3 0 -10 -17 -16 -39z"/>
<path d="M1646 3977 c-60 -78 -72 -171 -35 -258 12 -27 25 -49 29 -49 12 0 59
66 76 105 21 52 17 122 -11 183 -13 28 -26 52 -29 52 -3 0 -16 -15 -30 -33z"/>
<path d="M3971 3961 c-39 -92 -22 -192 46 -265 l27 -30 23 50 c27 58 30 138 8
191 -18 42 -62 103 -74 103 -5 0 -18 -22 -30 -49z"/>
<path d="M1502 3818 c-28 -35 -52 -106 -52 -159 0 -43 7 -70 28 -110 15 -30
34 -54 42 -54 23 0 61 79 67 139 5 44 1 63 -20 107 -36 78 -50 94 -65 77z"/>
<path d="M4158 3813 c-32 -36 -58 -107 -58 -164 0 -60 42 -163 64 -156 21 7
66 92 72 137 7 53 -6 110 -39 163 -22 36 -24 37 -39 20z"/>
<path d="M1346 3580 c-35 -89 -13 -201 53 -264 l29 -28 17 33 c25 47 31 145
12 190 -15 36 -73 109 -87 109 -4 0 -15 -18 -24 -40z"/>
<path d="M4277 3593 c-36 -39 -67 -111 -66 -158 0 -53 30 -140 48 -140 19 0
78 88 92 137 11 43 5 103 -17 156 -16 39 -23 40 -57 5z"/>
<path d="M1240 3346 c-14 -66 -6 -117 26 -173 30 -52 90 -101 106 -85 6 6 13
42 16 80 4 59 1 78 -18 116 -19 41 -92 116 -111 116 -4 0 -13 -24 -19 -54z"/>
<path d="M4378 3370 c-46 -38 -88 -121 -88 -174 0 -53 18 -116 32 -116 25 0
104 96 117 143 17 58 4 177 -18 177 -3 0 -23 -13 -43 -30z"/>
<path d="M1173 3144 c-9 -25 3 -128 20 -160 29 -56 128 -137 145 -119 4 4 7
37 7 73 -1 85 -23 132 -88 183 -53 42 -74 48 -84 23z"/>
<path d="M4444 3131 c-51 -37 -70 -59 -89 -104 -15 -36 -21 -148 -9 -160 16
-16 96 43 142 104 30 40 36 189 7 189 -7 0 -30 -13 -51 -29z"/>
<path d="M1143 2862 c10 -112 68 -183 176 -217 24 -7 24 -7 18 54 -11 100 -61
173 -144 208 -53 22 -56 19 -50 -45z"/>
<path d="M4485 2899 c-83 -41 -128 -106 -140 -202 -8 -66 -1 -71 63 -38 85 43
131 117 132 209 0 28 -3 52 -7 52 -5 -1 -26 -10 -48 -21z"/>
<path d="M7337 2880 c-67 -12 -151 -55 -183 -93 -55 -65 -67 -110 -72 -264
l-4 -142 -107 -3 -106 -3 -3 -92 -3 -93 111 0 110 0 0 -555 0 -555 105 0 105
0 0 550 0 550 125 0 125 0 0 95 0 94 -122 3 -123 3 1 115 c0 141 12 170 79
196 36 13 62 15 125 10 l80 -6 0 89 c0 83 -1 89 -22 95 -41 11 -172 15 -221 6z"/>
<path d="M11703 2876 c-102 -24 -156 -61 -199 -138 -28 -51 -29 -59 -32 -205
l-4 -153 -109 0 -109 0 0 -95 0 -95 110 0 110 0 0 -555 0 -555 105 0 105 0 0
550 0 549 123 3 122 3 3 93 3 92 -126 0 -125 0 0 121 c0 133 11 167 59 189 37
18 140 24 184 12 l37 -10 0 93 c0 88 -1 93 -22 99 -52 14 -175 15 -235 2z"/>
<path d="M8420 1975 l0 -897 398 5 c420 5 454 8 588 58 230 85 380 265 444
531 30 125 43 325 31 461 -34 364 -189 581 -486 682 -126 42 -178 47 -582 52
l-393 5 0 -897z m843 666 c107 -28 168 -64 235 -135 60 -66 99 -141 128 -251
16 -57 19 -106 19 -270 0 -179 -3 -208 -23 -280 -65 -225 -208 -366 -418 -410
-49 -10 -137 -15 -306 -15 l-238 0 0 696 0 697 263 -6 c224 -4 273 -8 340 -26z"/>
<path d="M1135 2639 c24 -117 94 -190 204 -214 l34 -7 -7 42 c-17 106 -94 186
-200 205 l-38 8 7 -34z"/>
<path d="M4490 2661 c-82 -25 -141 -84 -165 -163 -25 -87 -26 -86 54 -62 72
21 134 83 155 155 25 83 21 89 -44 70z"/>
<path d="M1170 2411 c0 -28 26 -85 56 -120 34 -41 88 -68 153 -77 46 -6 51 -5
51 13 0 37 -52 125 -92 153 -34 25 -111 50 -153 50 -8 0 -15 -8 -15 -19z"/>
<path d="M4443 2420 c-97 -20 -154 -76 -187 -187 -7 -20 -4 -23 22 -23 51 0
134 33 167 66 32 32 58 79 70 127 8 30 3 31 -72 17z"/>
<path d="M10544 2401 c-244 -39 -436 -225 -498 -485 -24 -98 -22 -257 3 -375
53 -243 191 -402 406 -467 46 -14 91 -19 195 -18 118 1 144 4 208 26 128 46
217 118 278 227 24 44 64 149 64 171 0 6 -39 10 -104 10 l-104 0 -17 -49 c-38
-115 -146 -190 -288 -198 -173 -11 -306 52 -383 182 -26 45 -54 151 -54 208
l0 37 487 0 486 0 -6 98 c-20 312 -177 546 -414 615 -65 20 -193 28 -259 18z
m218 -211 c109 -40 201 -154 227 -278 6 -29 11 -55 11 -57 0 -3 -169 -5 -375
-5 l-374 0 5 33 c30 168 134 290 281 327 56 14 160 5 225 -20z"/>
<path d="M12480 2399 c-234 -34 -414 -198 -489 -444 -34 -110 -35 -319 -2
-440 43 -164 135 -301 251 -375 118 -75 327 -109 480 -76 203 43 354 182 404
374 l14 52 -107 0 -107 0 -11 -43 c-42 -156 -244 -244 -443 -193 -164 42 -280
192 -280 361 l0 55 486 0 486 0 -7 78 c-16 186 -58 320 -136 431 -85 122 -193
190 -339 217 -83 15 -119 15 -200 3z m158 -189 c150 -35 268 -163 288 -313 l7
-47 -373 0 -373 0 7 40 c10 64 44 144 81 193 79 104 231 157 363 127z"/>
<path d="M13871 2400 c-62 -9 -132 -34 -181 -65 -38 -24 -139 -129 -142 -148
-1 -7 -4 33 -7 88 l-6 100 -97 3 -98 3 0 -651 0 -650 104 0 105 0 3 428 c3
418 4 428 26 484 29 71 100 152 162 183 26 13 77 29 114 36 145 25 257 -20
311 -125 l30 -60 3 -473 3 -473 105 0 105 0 -4 493 c-3 338 -8 506 -16 536
-47 173 -158 267 -345 291 -81 11 -100 11 -175 0z"/>
<path d="M15120 2401 c-202 -30 -351 -134 -438 -308 -59 -120 -77 -208 -77
-383 1 -169 14 -232 76 -359 90 -183 251 -283 479 -298 226 -14 407 65 513
224 44 66 92 186 99 248 l3 30 -105 3 -106 3 -21 -73 c-12 -40 -35 -92 -52
-115 -66 -91 -179 -139 -310 -131 -100 6 -166 36 -229 102 -88 94 -122 197
-122 377 0 306 121 473 360 495 163 16 304 -71 345 -211 l12 -40 113 -3 112
-3 -7 43 c-40 242 -222 385 -510 402 -44 2 -105 1 -135 -3z"/>
<path d="M16410 2400 c-335 -53 -554 -375 -510 -752 36 -309 176 -499 426
-574 84 -26 286 -26 369 -1 131 41 220 102 284 198 37 56 70 129 85 192 l6 27
-105 0 c-92 0 -106 -2 -111 -17 -15 -53 -62 -128 -98 -159 -120 -103 -358 -97
-501 11 -73 56 -135 192 -135 296 l0 49 485 0 485 0 0 43 c0 67 -27 227 -49
290 -66 191 -195 326 -356 376 -75 23 -200 33 -275 21z m175 -195 c145 -38
255 -162 272 -305 l6 -50 -372 0 -373 0 7 42 c27 155 129 276 265 312 72 19
123 19 195 1z"/>
<path d="M6013 2380 c-285 -75 -446 -316 -445 -665 2 -343 176 -586 468 -651
111 -24 284 -16 382 18 269 96 414 343 399 683 -6 138 -23 211 -72 310 -80
163 -212 269 -389 310 -87 21 -254 18 -343 -5z m350 -205 c100 -50 173 -146
213 -280 22 -75 25 -247 5 -325 -33 -131 -112 -239 -216 -293 -57 -30 -66 -32
-170 -32 -132 0 -176 16 -259 95 -121 115 -173 324 -131 525 34 162 128 281
258 327 82 29 224 21 300 -17z"/>
<path d="M1237 2184 c-10 -10 28 -76 65 -111 18 -18 50 -39 70 -47 39 -17 158
-22 158 -8 0 14 -56 96 -81 119 -14 12 -44 29 -68 38 -43 15 -132 21 -144 9z"/>
<path d="M4281 2164 c-37 -19 -62 -41 -87 -78 -50 -74 -48 -79 39 -74 60 3 82
8 116 31 41 27 101 107 101 134 0 25 -110 16 -169 -13z"/>
<path d="M1377 1971 c-20 -4 -39 -10 -42 -13 -11 -11 58 -89 102 -115 40 -23
60 -28 113 -28 36 0 73 5 83 11 16 9 15 13 -14 52 -55 75 -149 112 -242 93z"/>
<path d="M4199 1971 c-51 -10 -103 -46 -138 -93 -35 -47 -31 -54 36 -64 75
-11 140 12 200 72 29 29 53 57 53 63 0 19 -96 33 -151 22z"/>
<path d="M1503 1768 c-18 -6 -33 -17 -33 -24 0 -24 96 -91 147 -103 50 -12
121 -3 165 20 19 10 19 12 -13 45 -50 51 -105 74 -175 73 -32 -1 -74 -6 -91
-11z"/>
<path d="M3994 1760 c-22 -11 -56 -36 -75 -56 -38 -39 -35 -45 31 -64 59 -17
113 -12 168 16 54 27 109 82 95 94 -38 34 -160 39 -219 10z"/>
<path d="M1725 1606 c-22 -7 -55 -21 -74 -30 l-34 -18 24 -19 c82 -66 165 -82
251 -49 87 32 87 46 1 92 -61 33 -117 41 -168 24z"/>
<path d="M3855 1611 c-35 -9 -80 -32 -115 -60 -25 -20 -25 -20 -5 -35 26 -20
110 -46 149 -46 54 1 183 70 170 92 -20 32 -145 62 -199 49z"/>
<path d="M1905 1456 c-16 -8 -45 -25 -63 -39 -26 -19 -30 -27 -19 -35 30 -25
105 -52 147 -52 44 0 122 31 165 65 20 16 20 16 -4 34 -53 40 -167 54 -226 27z"/>
<path d="M3581 1444 c-50 -25 -51 -27 -35 -45 28 -31 115 -69 159 -69 45 0
119 22 149 45 25 19 10 38 -56 71 -66 34 -146 33 -217 -2z"/>
<path d="M2149 1355 c-25 -8 -65 -33 -90 -56 l-44 -41 30 -15 c47 -25 154 -29
196 -8 48 25 109 74 109 89 0 32 -134 52 -201 31z"/>
<path d="M3397 1356 c-27 -7 -53 -18 -58 -23 -12 -12 60 -79 107 -99 56 -24
174 -14 208 17 13 12 -39 66 -86 90 -51 26 -113 32 -171 15z"/>
<path d="M3163 1288 c-24 -5 -43 -13 -43 -19 0 -16 72 -90 104 -106 46 -24
105 -32 160 -22 27 5 51 11 54 14 2 2 -10 22 -28 45 -60 76 -154 110 -247 88z"/>
<path d="M2362 1269 c-44 -22 -115 -96 -109 -113 8 -25 107 -33 171 -14 51 15
154 114 136 132 -6 6 -43 12 -83 14 -58 2 -80 -1 -115 -19z"/>
<path d="M2653 1249 c-49 -12 -119 -70 -151 -127 l-23 -41 45 -6 c97 -15 198
40 246 134 l19 39 -37 6 c-43 7 -44 7 -99 -5z"/>
<path d="M2923 1253 c-28 -5 -28 -9 -2 -53 52 -86 112 -123 206 -124 34 -1 64
2 68 6 18 18 -61 120 -114 147 -38 20 -120 32 -158 24z"/>
<path d="M2818 1209 c-58 -101 -60 -165 -6 -259 l31 -54 23 29 c30 37 54 107
54 154 0 35 -33 117 -63 155 -13 18 -15 17 -39 -25z"/>
</g>
</svg>
