<?xml version="1.0" standalone="yes"?>
<svg xmlns="http://www.w3.org/2000/svg" width="275" height="270">
<path style="fill:#ffffff; stroke:none;" d="M0 0L0 270L275 270L275 0L0 0z"/>
<path style="fill:#ffffff; stroke:none;" d="M121 5.42517C100.688 8.19003 81.3132 14.5458 64 25.6983C49.8349 34.8229 38.0245 46.4007 28.152 60C19.8081 71.4937 13.7696 84.4116 9.72068 98C-16.7434 186.815 60.9936 274.599 152 263.715C171.944 261.329 190.806 254.944 208 244.55C221.892 236.152 233.902 224.938 243.625 212C253.148 199.328 260.22 185.253 264.573 170C289.824 81.5094 212.2 -6.98911 121 5.42517z"/>
<path style="fill:#aba9a7; stroke:none;" d="M127 6L127 7L130 7L127 6z"/>
<path style="fill:#f68d17; stroke:none;" d="M130 6L130 7L144 7L130 6z"/>
<path style="fill:#aba9a7; stroke:none;" d="M144 6L144 7L147 7L144 6M118.667 7.33334L119.333 7.66666L118.667 7.33334z"/>
<path style="fill:#f68d17; stroke:none;" d="M120.667 7.33334L121.333 7.66666L120.667 7.33334z"/>
<path style="fill:#ff0504; stroke:none;" d="M122 7.42825C101.447 10.3712 82.6335 16.9022 65 27.9151C1.02403 67.8712 -11.926 160.413 37.2894 217C67.671 251.932 112.728 266.81 158 260.711C175.035 258.417 191.252 251.91 206 243.269C219.623 235.288 231.482 224.459 241.112 212C298.416 137.864 255.295 29.2748 165 9.79013C151.28 6.82959 135.999 5.42377 122 7.42825z"/>
<path style="fill:#f68d17; stroke:none;" d="M152.667 7.33334L153.333 7.66666L152.667 7.33334z"/>
<path style="fill:#aba9a7; stroke:none;" d="M154.667 7.33334L155.333 7.66666L154.667 7.33334z"/>
<path style="fill:#ffffff; stroke:none;" d="M114.667 8.33334L115.333 8.66666L114.667 8.33334M159 8L160 9L159 8z"/>
<path style="fill:#aba9a7; stroke:none;" d="M160 8L161 9L160 8M108 9L109 10L108 9z"/>
<path style="fill:#f68d17; stroke:none;" d="M109.667 9.33334L110.333 9.66666L109.667 9.33334M163 9L163 10L166 10L163 9z"/>
<path style="fill:#aba9a7; stroke:none;" d="M166 9L167 10L166 9M103 10L104 11L103 10z"/>
<path style="fill:#f68d17; stroke:none;" d="M104.667 10.3333L105.333 10.6667L104.667 10.3333M168.667 10.3333L169.333 10.6667L168.667 10.3333z"/>
<path style="fill:#aba9a7; stroke:none;" d="M170 10L171 11L170 10M99 11L100 12L99 11z"/>
<path style="fill:#f68d17; stroke:none;" d="M100.667 11.3333L101.333 11.6667L100.667 11.3333M172.667 11.3333L173.333 11.6667L172.667 11.3333z"/>
<path style="fill:#f68d17; stroke:none;" d="M174 11L175 12L174 11M96 12L97 13L96 12z"/>
<path style="fill:#f68d17; stroke:none;" d="M97 12L98 13L97 12M176.667 12.3333L177.333 12.6667L176.667 12.3333M94 13L95 14L94 13M179 13L180 14L179 13z"/>
<path style="fill:#f68d17; stroke:none;" d="M180 13L181 14L180 13M91 14L92 15L91 14z"/>
<path style="fill:#f68d17; stroke:none;" d="M182 14L183 15L182 14z"/>
<path style="fill:#f68d17; stroke:none;" d="M88 15L89 16L88 15z"/>
<path style="fill:#f68d17; stroke:none;" d="M89 15L90 16L89 15M184.667 15.3333L185.333 15.6667L184.667 15.3333M86 16L87 17L86 16M187 16L188 17L187 16M84 17L85 18L84 17M189.667 17.3333L190.333 17.6667L189.667 17.3333z"/>
<path style="fill:#aba9a7; stroke:none;" d="M81 18L82 19L81 18z"/>
<path style="fill:#f68d17; stroke:none;" d="M82 18L83 19L82 18M192 18L193 19L192 18M79.6667 19.3333L80.3333 19.6667L79.6667 19.3333M194 19L195 20L194 19M77.6667 20.3333L78.3333 20.6667L77.6667 20.3333M196 20L197 21L196 20z"/>
<path style="fill:#aba9a7; stroke:none;" d="M75 21L76 22L75 21z"/>
<path style="fill:#f68d17; stroke:none;" d="M198 21L199 22L198 21M200 22L201 23L200 22M72 23L73 24L72 23z"/>
<path style="fill:#aba9a7; stroke:none;" d="M202 23L203 24L202 23z"/>
<path style="fill:#f68d17; stroke:none;" d="M70 24L71 25L70 24M203 24L204 25L203 24z"/>
<path style="fill:#aba9a7; stroke:none;" d="M68 25L69 26L68 25z"/>
<path style="fill:#f68d17; stroke:none;" d="M69 25L70 26L69 25M205 25L206 26L205 25M67 26L68 27L67 26M207 26L208 27L207 26M65 27L66 28L65 27M208 27L209 28L208 27M210 28L211 29L210 28M62 29L63 30L62 29M211 29L212 30L211 29M61 30L62 31L61 30z"/>
<path style="fill:#aba9a7; stroke:none;" d="M213 30L214 31L213 30M59 31L60 32L59 31z"/>
<path style="fill:#f68d17; stroke:none;" d="M54 199L71 184L100 154C88.2955 158.266 72.3894 157.701 61 152.481C58.1342 151.168 43.7204 141.381 51.1674 138.176C55.4305 136.341 62.7423 144.826 67 146.215C78.8115 150.067 106.124 150.884 114 140C97.6199 143.56 69.5504 130.024 61.2245 116C58.2104 110.923 54.6101 86.5082 65.0201 86.3457C67.5926 86.3055 68.6129 88.8338 68.4529 91.0054C67.7966 99.916 63.4748 106.898 70.2276 114.996C81.0261 127.945 101.39 130.973 117 134C114.668 128.227 106.869 124.666 105.842 118.985C104.679 112.554 111.101 110.325 114 116L118 112C112.322 109.1 114.537 102.532 120.996 103.681C126.379 104.639 130.881 112.294 136 115C134.091 100.22 129.931 78.4525 117.91 68.3935C109.039 60.9711 101.851 66.4294 92.2909 66.6659C90.2613 66.7161 88.2309 65.2637 88.331 63.0463C88.8224 52.1676 113.747 56.2496 119 59.5594C133.523 68.7106 143.747 94.0755 143 111C152.931 103.439 152.327 75.9862 148.452 65C147.039 60.9939 139.152 52.9988 140.346 49.1667C142.933 40.8558 153.526 56.5858 154.674 59C160.155 70.5326 159.94 84.793 157 97C169.571 88.1447 180.13 74.871 191 64C193.68 61.3196 201.74 55.6913 199.248 51.2099C195.372 44.2371 180.148 39.4251 173 37.0039C144.51 27.3533 111.302 29.3823 85 44.4275C27.7274 77.1882 16.8181 147.086 54 199M214 31L215 32L214 31M58 32L59 33L58 32M57 33L58 34L57 33M217 33L218 34L217 33M55 34L56 35L55 34M218 34L219 35L218 34M54 35L55 36L54 35M53 36L54 37L53 36z"/>
<path style="fill:#aba9a7; stroke:none;" d="M221 36L222 37L221 36z"/>
<path style="fill:#f68d17; stroke:none;" d="M222 37L223 38L222 37M223 38L224 39L223 38z"/>
<path style="fill:#aba9a7; stroke:none;" d="M49 39L50 40L49 39z"/>
<path style="fill:#f68d17; stroke:none;" d="M224 39L225 40L224 39z"/>
<path style="fill:#aba9a7; stroke:none;" d="M48 40L49 41L48 40z"/>
<path style="fill:#f68d17; stroke:none;" d="M225 40L226 41L225 40M47 41L48 42L47 41M226 41L227 42L226 41M46 42L47 43L46 42M227 42L228 43L227 42M45 43L46 44L45 43M44 44L45 45L44 44M43 45L44 46L43 45M42 46L43 47L42 46z"/>
<path style="fill:#aba9a7; stroke:none;" d="M141.667 46.3333L142.333 46.6667L141.667 46.3333z"/>
<path style="fill:#f8f2f0; stroke:none;" d="M148 105C161.938 97.3654 160.698 73.084 155.12 60C153.6 56.4342 146.226 42.6858 140.786 47.902C137.024 51.5094 146.108 59.7083 147.672 63C153.524 75.3121 151.079 92.2139 148 105z"/>
<path style="fill:#aba9a7; stroke:none;" d="M144 46L145 47L144 46z"/>
<path style="fill:#f68d17; stroke:none;" d="M41 47L42 48L41 47M40 48L41 49L40 48z"/>
<path style="fill:#aba9a7; stroke:none;" d="M139 48L140 49L139 48M147 48L148 49L147 48z"/>
<path style="fill:#f68d17; stroke:none;" d="M233 48L234 49L233 48M39 49L40 50L39 49z"/>
<path style="fill:#aba9a7; stroke:none;" d="M148 49L149 50L148 49z"/>
<path style="fill:#f68d17; stroke:none;" d="M234 49L235 50L234 49z"/>
<path style="fill:#aba9a7; stroke:none;" d="M38 50L39 51L38 50M149 50L150 51L149 50z"/>
<path style="fill:#f68d17; stroke:none;" d="M235 50L236 51L235 50z"/>
<path style="fill:#aba9a7; stroke:none;" d="M139 51L140 52L139 51z"/>
<path style="fill:#f68d17; stroke:none;" d="M236 51L237 52L236 51M237 52L238 53L237 52z"/>
<path style="fill:#aba9a7; stroke:none;" d="M151 53L152 54L151 53z"/>
<path style="fill:#f68d17; stroke:none;" d="M238 53L239 54L238 53M35 54L36 55L35 54z"/>
<path style="fill:#aba9a7; stroke:none;" d="M152 54L153 55L152 54z"/>
<path style="fill:#f68d17; stroke:none;" d="M34 55L35 56L34 55z"/>
<path style="fill:#aba9a7; stroke:none;" d="M33 56L34 57L33 56M98.6667 56.3333L99.3333 56.6667L98.6667 56.3333z"/>
<path style="fill:#f8f2f0; stroke:none;" d="M136 116L135 116C131.845 110.914 122.996 101.535 116.232 104.603C110.027 107.418 116.499 110.884 120 111L120 112L113 117C113.691 113.3 110.081 108.834 107.028 113.323C102.116 120.543 114.007 129.197 118 134C102.336 132.721 79.4308 127.216 69.5579 113.996C64.0932 106.679 66.8041 99.9795 68.3827 92.0039C68.8155 89.8174 68.7476 86.5639 65.8704 86.1759C55.7917 84.8168 58.0229 109.083 60.1049 114C66.1806 128.349 84.0288 134.612 98 138.127C102.164 139.174 107.705 141.599 112 140.397C117.269 138.921 120.87 133.285 125 130C120.359 122.613 124.025 114.472 131 123C134.88 119.884 141.353 115.046 142.527 109.996C143.605 105.36 141.394 99.4275 140.14 95C136.127 80.8267 129.98 63.2238 115 57.4684C110.021 55.5556 87.3169 54.3988 88.466 63.7901C88.8041 66.5529 91.8475 66.7614 94.0046 66.3472C102.044 64.8037 108.633 61.6865 115.999 67.3943C128.938 77.4203 135.673 100.132 136 116z"/>
<path style="fill:#aba9a7; stroke:none;" d="M112 56L113 57L112 56M153 56L154 57L153 56z"/>
<path style="fill:#f68d17; stroke:none;" d="M240 56L241 57L240 56z"/>
<path style="fill:#aba9a7; stroke:none;" d="M95 57L96 58L95 57M115 57L116 58L115 57z"/>
<path style="fill:#f68d17; stroke:none;" d="M241 57L242 58L241 57z"/>
<path style="fill:#aba9a7; stroke:none;" d="M91.6667 58.3333L92.3333 58.6667L91.6667 58.3333M117 58L118 59L117 58M145 58L146 59L145 58M154 58L155 59L154 58z"/>
<path style="fill:#f68d17; stroke:none;" d="M31 59L32 60L31 59z"/>
<path style="fill:#aba9a7; stroke:none;" d="M119 59L120 60L119 59z"/>
<path style="fill:#f68d17; stroke:none;" d="M30 60L31 61L30 60z"/>
<path style="fill:#aba9a7; stroke:none;" d="M88 60L89 61L88 60M146 60L147 61L146 60M155 60L156 61L155 60z"/>
<path style="fill:#f68d17; stroke:none;" d="M244 61L245 62L244 61M29 62L30 63L29 62z"/>
<path style="fill:#aba9a7; stroke:none;" d="M87 62L87 65L88 65L87 62M123 62L124 63L123 62M147 62L148 63L147 62z"/>
<path style="fill:#f68d17; stroke:none;" d="M28 63L29 64L28 63z"/>
<path style="fill:#aba9a7; stroke:none;" d="M106 63L107 64L106 63M124 63L125 64L124 63M156 63L157 64L156 63M99.6667 64.3333L100.333 64.6667L99.6667 64.3333M110.667 64.3333L111.333 64.6667L110.667 64.3333M125 64L126 65L125 64M148 64L149 65L148 64z"/>
<path style="fill:#f68d17; stroke:none;" d="M246 64L247 65L246 64M27 65L28 66L27 65z"/>
<path style="fill:#aba9a7; stroke:none;" d="M96 65L97 66L96 65M113 65L114 66L113 65M126 65L127 66L126 65M247 65L248 66L247 65M89 66L90 67L89 66M115 66L116 67L115 66M127 66L128 67L127 66M157 66L157 69L158 69L157 66M91 67L92 68L91 67M149.333 67.6667L149.667 68.3333L149.333 67.6667z"/>
<path style="fill:#f68d17; stroke:none;" d="M248 67L249 68L248 67M25 68L26 69L25 68z"/>
<path style="fill:#aba9a7; stroke:none;" d="M128 68L129 69L128 68M249 68L250 69L249 68M129 69L130 70L129 69z"/>
<path style="fill:#f68d17; stroke:none;" d="M249 69L250 70L249 69M219 70L184 106C194.566 101.666 203.019 99.4471 214 104.018C216.914 105.23 228.9 110.92 223.623 115.342C219.791 118.553 207.343 109.462 202 109.355C189.611 109.107 166.334 123.085 161 134C176.471 131.725 191.624 125.707 207 132.529C210.338 134.01 229.043 147.827 220.731 151.673C216.721 153.528 207.607 141.416 203 139.711C190.985 135.264 178.07 139.375 166 141C167.328 157.829 162.969 168.33 144 163C140.641 174.949 137.61 188.954 142.094 201C143.746 205.437 155.727 213.97 153.963 217.851C149.892 226.81 136.521 208.588 134.905 205C127.929 189.511 133.888 174.682 136 159C124.105 164.813 111.418 187.877 112.04 201C112.286 206.178 120.761 217.573 117.467 221.458C113.387 226.27 107.525 214.679 106.313 212C101.387 201.111 103.678 192.538 108 182C97.1528 187.093 78.143 206.184 73 217C118.203 249.096 181.852 243.38 218.711 201C242.477 173.674 249.744 132.769 236.742 99C232.865 88.9326 227.895 76.6038 219 70M250 70L251 71L250 70M23 71L24 72L23 71z"/>
<path style="fill:#aba9a7; stroke:none;" d="M130 71L131 72L130 71M121 72L122 73L121 72M158 72L158 84L159 84L158 72z"/>
<path style="fill:#f68d17; stroke:none;" d="M251 72L252 73L251 72M22 73L23 74L22 73z"/>
<path style="fill:#aba9a7; stroke:none;" d="M122 73L123 74L122 73M150 73L150 88L151 88L150 73M21 74L22 75L21 74M132 74L133 75L132 74z"/>
<path style="fill:#f68d17; stroke:none;" d="M252 74L253 75L252 74M21 75L22 76L21 75z"/>
<path style="fill:#aba9a7; stroke:none;" d="M133 76L134 77L133 76z"/>
<path style="fill:#f68d17; stroke:none;" d="M253 76L254 77L253 76M20 77L21 78L20 77z"/>
<path style="fill:#aba9a7; stroke:none;" d="M125 78L126 79L125 78M134 78L135 79L134 78z"/>
<path style="fill:#f68d17; stroke:none;" d="M19 79L20 80L19 79z"/>
<path style="fill:#aba9a7; stroke:none;" d="M18 80L19 81L18 80M126 80L127 81L126 80z"/>
<path style="fill:#f68d17; stroke:none;" d="M255 80L256 81L255 80M18 81L19 82L18 81z"/>
<path style="fill:#aba9a7; stroke:none;" d="M135 81L136 82L135 81M256 81L257 82L256 81M127 82L128 83L127 82z"/>
<path style="fill:#f68d17; stroke:none;" d="M256 82L257 83L256 82M17 83L18 84L17 83z"/>
<path style="fill:#aba9a7; stroke:none;" d="M136.333 83.6667L136.667 84.3333L136.333 83.6667z"/>
<path style="fill:#f68d17; stroke:none;" d="M257 84L258 85L257 84M16 85L17 86L16 85z"/>
<path style="fill:#aba9a7; stroke:none;" d="M64 85L65 86L64 85M66 85L67 86L66 85M128 85L129 86L128 85M158 85L158 89L159 89L158 85M62 86L63 87L62 86M137 86L138 87L137 86M258 86L259 87L258 86M61 87L62 88L61 87z"/>
<path style="fill:#f68d17; stroke:none;" d="M258 87L259 88L258 87z"/>
<path style="fill:#aba9a7; stroke:none;" d="M69.3333 88.6667L69.6667 89.3333L69.3333 88.6667M129 88L130 89L129 88M138 89L139 90L138 89z"/>
<path style="fill:#f68d17; stroke:none;" d="M259 89L260 90L259 89M14.3333 90.6667L14.6667 91.3333L14.3333 90.6667z"/>
<path style="fill:#aba9a7; stroke:none;" d="M60 90L61 91L60 90M130 91L131 92L130 91M139.333 91.6667L139.667 92.3333L139.333 91.6667z"/>
<path style="fill:#f68d17; stroke:none;" d="M260 92L261 93L260 92M13 93L14 94L13 93z"/>
<path style="fill:#aba9a7; stroke:none;" d="M59 93L60 94L59 93M131.333 93.6667L131.667 94.3333L131.333 93.6667M67 94L68 95L67 94M149 94L149 97L150 97L149 94M157 94L158 95L157 94z"/>
<path style="fill:#f68d17; stroke:none;" d="M261.333 94.6667L261.667 95.3333L261.333 94.6667M12.3333 96.6667L12.6667 97.3333L12.3333 96.6667z"/>
<path style="fill:#aba9a7; stroke:none;" d="M58.3333 96.6667L58.6667 97.3333L58.3333 96.6667M132.333 96.6667L132.667 97.3333L132.333 96.6667M140 96L141 97L140 96M156 97L157 98L156 97M66 98L67 99L66 98z"/>
<path style="fill:#f68d17; stroke:none;" d="M262 98L263 99L262 98M11.3333 99.6667L11.6667 100.333L11.3333 99.6667z"/>
<path style="fill:#aba9a7; stroke:none;" d="M141 99L142 100L141 99M133.333 100.667L133.667 101.333L133.333 100.667M152 101L153 102L152 101M196.667 101.333L197.333 101.667L196.667 101.333z"/>
<path style="fill:#f8f2f0; stroke:none;" d="M153 136L153 137C165.273 151.976 153.998 161.668 139 151L138 151C125.164 163.836 107.419 176.284 103.673 195C102.191 202.404 105.399 211.78 109.468 217.956C110.981 220.252 114.31 223.991 117.393 221.777C121.377 218.916 112.222 205.865 111.864 201.439C110.865 189.078 119.783 178.468 126.579 169C129.462 164.984 132.013 160.237 137 159C131.204 172.647 129.491 192.192 135.468 206C136.98 209.493 149.515 226.195 153.914 218.671C156.49 214.263 144.495 206.084 142.543 202C136.52 189.397 141.948 175.878 143 163C160.721 166.437 170.311 159.898 165 141C177.425 139.985 190.626 134.581 203 139.613C207.42 141.411 216.374 154.227 220.693 151.863C227.984 147.872 214.191 136.385 211 134.482C193.873 124.268 177.194 135.594 160 133C170.366 124.031 185.842 110.715 200 109.188C205.348 108.612 221.318 118.84 223.953 115.381C226.594 111.914 221.527 107.865 218.995 106.363C212.146 102.301 203.84 100.243 196 101.808C178.011 105.399 165.33 123.67 153 136z"/>
<path style="fill:#aba9a7; stroke:none;" d="M205.667 101.333L206.333 101.667L205.667 101.333z"/>
<path style="fill:#f68d17; stroke:none;" d="M263.333 101.667L263.667 102.333L263.333 101.667z"/>
<path style="fill:#aba9a7; stroke:none;" d="M148.333 102.667L148.667 103.333L148.333 102.667z"/>
<path style="fill:#f68d17; stroke:none;" d="M151 102L152 103L151 102z"/>
<path style="fill:#aba9a7; stroke:none;" d="M192 102L193 103L192 102M210 102L211 103L210 102M117 103L117 104L122 104L117 103M142 103L142 106L143 106L142 103M150 103L151 104L150 103M189 103L190 104L189 103M212 103L213 104L212 103z"/>
<path style="fill:#f68d17; stroke:none;" d="M10 104L11 105L10 104z"/>
<path style="fill:#aba9a7; stroke:none;" d="M124 104L125 105L124 104M134 104L134 107L135 107L134 104M187 104L188 105L187 104M215 104L216 105L215 104M125 105L126 106L125 105M148 105L149 106L148 105M185 105L186 106L185 105M217 105L218 106L217 105z"/>
<path style="fill:#f68d17; stroke:none;" d="M264.333 105.667L264.667 106.333L264.333 105.667z"/>
<path style="fill:#aba9a7; stroke:none;" d="M113 106L114 107L113 106M126 106L127 107L126 106z"/>
<path style="fill:#f68d17; stroke:none;" d="M182 106L183 107L182 106z"/>
<path style="fill:#aba9a7; stroke:none;" d="M183 106L184 107L183 106M219 106L220 107L219 106z"/>
<path style="fill:#f68d17; stroke:none;" d="M9 107L10 108L9 107z"/>
<path style="fill:#aba9a7; stroke:none;" d="M66.3333 107.667L66.6667 108.333L66.3333 107.667z"/>
<path style="fill:#f68d17; stroke:none;" d="M181 107L182 108L181 107z"/>
<path style="fill:#aba9a7; stroke:none;" d="M127 108L128 109L127 108M143.333 108.667L143.667 109.333L143.333 108.667z"/>
<path style="fill:#f68d17; stroke:none;" d="M180 108L181 109L180 108z"/>
<path style="fill:#aba9a7; stroke:none;" d="M222 108L223 109L222 108M58 109L59 110L58 109M113 109L114 110L113 109M135 109L135 112L136 112L135 109z"/>
<path style="fill:#f68d17; stroke:none;" d="M179 109L180 110L179 109z"/>
<path style="fill:#aba9a7; stroke:none;" d="M197 109L197 110L200 110L197 109M204 109L204 110L207 110L204 109M223 109L224 110L223 109z"/>
<path style="fill:#f68d17; stroke:none;" d="M265 109L265 112L266 112L265 109M178 110L179 111L178 110z"/>
<path style="fill:#aba9a7; stroke:none;" d="M194 110L195 111L194 110M207.667 110.333L208.333 110.667L207.667 110.333M224 110L225 111L224 110M67 111L68 112L67 111M115 111L115 112L120 112L115 111M129 111L130 112L129 111M142 111L143 112L142 111z"/>
<path style="fill:#f68d17; stroke:none;" d="M177 111L178 112L177 111z"/>
<path style="fill:#aba9a7; stroke:none;" d="M191 111L192 112L191 111M211 111L212 112L211 111M225 111L225 115L226 115L225 111z"/>
<path style="fill:#f68d17; stroke:none;" d="M8.33333 112.667L8.66667 113.333L8.33333 112.667z"/>
<path style="fill:#aba9a7; stroke:none;" d="M59 112L60 113L59 112z"/>
<path style="fill:#f68d17; stroke:none;" d="M176 112L177 113L176 112z"/>
<path style="fill:#aba9a7; stroke:none;" d="M189 112L190 113L189 112M213 112L214 113L213 112M133 113L134 114L133 113z"/>
<path style="fill:#f68d17; stroke:none;" d="M175 113L176 114L175 113z"/>
<path style="fill:#aba9a7; stroke:none;" d="M187 113L188 114L187 113M215 113L216 114L215 113M69 114L70 115L69 114M113 114L114 115L113 114z"/>
<path style="fill:#f68d17; stroke:none;" d="M174 114L175 115L174 114z"/>
<path style="fill:#aba9a7; stroke:none;" d="M216 114L217 115L216 114M60 115L61 116L60 115M70 115L71 116L70 115M135 115L136 116L135 115z"/>
<path style="fill:#f68d17; stroke:none;" d="M173 115L174 116L173 115z"/>
<path style="fill:#aba9a7; stroke:none;" d="M184 115L185 116L184 115z"/>
<path style="fill:#f68d17; stroke:none;" d="M266 115L266 118L267 118L266 115z"/>
<path style="fill:#aba9a7; stroke:none;" d="M7 116L8 117L7 116M71 116L72 117L71 116M105 116L105 120L106 120L105 116M113.667 116.333L114.333 116.667L113.667 116.333M137 116L138 117L137 116z"/>
<path style="fill:#f68d17; stroke:none;" d="M172 116L173 117L172 116z"/>
<path style="fill:#aba9a7; stroke:none;" d="M182 116L183 117L182 116M219 116L220 117L219 116z"/>
<path style="fill:#f68d17; stroke:none;" d="M7 117L7 123L8 123L7 117z"/>
<path style="fill:#aba9a7; stroke:none;" d="M72 117L73 118L72 117z"/>
<path style="fill:#f68d17; stroke:none;" d="M136 117L137 118L136 117M171 117L172 118L171 117z"/>
<path style="fill:#aba9a7; stroke:none;" d="M62 118L63 119L62 118M73 118L74 119L73 118M124 118L125 119L124 118M135 118L136 119L135 118z"/>
<path style="fill:#f68d17; stroke:none;" d="M170 118L171 119L170 118z"/>
<path style="fill:#aba9a7; stroke:none;" d="M179 118L180 119L179 118M63 119L64 120L63 119M74 119L75 120L74 119M122 119L121 121L122 119z"/>
<path style="fill:#010101; stroke:none;" d="M123 128L130 121C123.214 117.812 120.711 121.514 123 128z"/>
<path style="fill:#aba9a7; stroke:none;" d="M127.667 119.333L128.333 119.667L127.667 119.333M134 119L135 120L134 119M129 120L130 121L129 120z"/>
<path style="fill:#f68d17; stroke:none;" d="M168 120L169 121L168 120z"/>
<path style="fill:#aba9a7; stroke:none;" d="M176 120L177 121L176 120M77 121L78 122L77 121M130 121L124 129C127.346 127.401 130.816 124.999 130 121z"/>
<path style="fill:#f68d17; stroke:none;" d="M167 121L168 122L167 121z"/>
<path style="fill:#aba9a7; stroke:none;" d="M79 122L80 123L79 122z"/>
<path style="fill:#f68d17; stroke:none;" d="M166 122L167 123L166 122z"/>
<path style="fill:#aba9a7; stroke:none;" d="M173 122L174 123L173 122M81 123L82 124L81 123M107 123L108 124L107 123z"/>
<path style="fill:#f68d17; stroke:none;" d="M165 123L166 124L165 123z"/>
<path style="fill:#aba9a7; stroke:none;" d="M172 123L173 124L172 123M267.333 123.667L267.667 124.333L267.333 123.667M83 124L84 125L83 124M109 124L110 125L109 124M121.333 124.667L121.667 125.333L121.333 124.667z"/>
<path style="fill:#f68d17; stroke:none;" d="M164 124L165 125L164 124z"/>
<path style="fill:#aba9a7; stroke:none;" d="M69 125L70 126L69 125M85 125L86 126L85 125M111 125L112 126L111 125z"/>
<path style="fill:#f68d17; stroke:none;" d="M163 125L164 126L163 125z"/>
<path style="fill:#aba9a7; stroke:none;" d="M169 125L170 126L169 125z"/>
<path style="fill:#f68d17; stroke:none;" d="M267 125L267 143L268 143L267 125z"/>
<path style="fill:#aba9a7; stroke:none;" d="M70 126L71 127L70 126M87 126L88 127L87 126M122 126L123 127L122 126z"/>
<path style="fill:#f68d17; stroke:none;" d="M162 126L163 127L162 126z"/>
<path style="fill:#aba9a7; stroke:none;" d="M168 126L169 127L168 126M90.6667 127.333L91.3333 127.667L90.6667 127.333z"/>
<path style="fill:#f8f2f0; stroke:none;" d="M126 127L127 128L126 127z"/>
<path style="fill:#f68d17; stroke:none;" d="M161 127L162 128L161 127z"/>
<path style="fill:#aba9a7; stroke:none;" d="M166 127L167 128L166 127M73 128L74 129L73 128M93 128L94 129L93 128z"/>
<path style="fill:#f68d17; stroke:none;" d="M160 128L161 129L160 128z"/>
<path style="fill:#aba9a7; stroke:none;" d="M165 128L166 129L165 128M75 129L76 130L75 129M96 129L97 130L96 129M114 129L115 130L114 129z"/>
<path style="fill:#f68d17; stroke:none;" d="M159 129L160 130L159 129z"/>
<path style="fill:#aba9a7; stroke:none;" d="M185 129L185 130L195 130L185 129M100 130L101 131L100 130z"/>
<path style="fill:#f68d17; stroke:none;" d="M158 130L159 131L158 130z"/>
<path style="fill:#aba9a7; stroke:none;" d="M162 130L163 131L162 130M177.667 130.333L178.333 130.667L177.667 130.333M200 130L201 131L200 130M79 131L80 132L79 131M103.667 131.333L104.333 131.667L103.667 131.333M122 131L123 132L122 131z"/>
<path style="fill:#f68d17; stroke:none;" d="M157 131L158 132L157 131z"/>
<path style="fill:#aba9a7; stroke:none;" d="M161 131L162 132L161 131M172 131L173 132L172 131M203.667 131.333L204.333 131.667L203.667 131.333M81 132L82 133L81 132M109 132L110 133L109 132M121 132L122 133L121 132z"/>
<path style="fill:#f68d17; stroke:none;" d="M156 132L157 133L156 132z"/>
<path style="fill:#aba9a7; stroke:none;" d="M160 132L161 133L160 132M167 132L168 133L167 132M207 132L208 133L207 132M83 133L84 134L83 133M113.667 133.333L114.333 133.667L113.667 133.333M117 133L118 134L117 133z"/>
<path style="fill:#f68d17; stroke:none;" d="M120 133L121 134L120 133M155 133L156 134L155 133z"/>
<path style="fill:#aba9a7; stroke:none;" d="M164 133L165 134L164 133M209 133L210 134L209 133M86 134L87 135L86 134z"/>
<path style="fill:#f68d17; stroke:none;" d="M154 134L155 135L154 134z"/>
<path style="fill:#aba9a7; stroke:none;" d="M89 135L90 136L89 135M212 135L213 136L212 135M50 137L51 138L50 137z"/>
<path style="fill:#f8f2f0; stroke:none;" d="M107 146C91.1973 147.247 72.8051 152.22 59 141.679C56.9084 140.082 51.5348 135.012 49.3927 139.438C46.2894 145.851 59.666 152.209 64 153.558C77.716 157.826 98.4914 159.489 107 146z"/>
<path style="fill:#aba9a7; stroke:none;" d="M54 137L55 138L54 137M95 137L96 138L95 137z"/>
<path style="fill:#010101; stroke:none;" d="M139 151C155.298 160.477 162.412 153.461 154 137L139 151z"/>
<path style="fill:#aba9a7; stroke:none;" d="M188 137L188 138L191 138L188 137M55 138L56 139L55 138M99 138L100 139L99 138M115 138L116 139L115 138M154 138L155 139L154 138M178.667 138.333L179.333 138.667L178.667 138.333M199 138L200 139L199 138M216 138L217 139L216 138M48 139L49 140L48 139M56 139L57 140L56 139M103 139L104 140L103 139M114 139L115 140L114 139M155 139L156 140L155 139M173 139L174 140L173 139M202.667 139.333L203.333 139.667L202.667 139.333M217 139L218 140L217 139M57 140L58 141L57 140M107 140L108 141L107 140M169 140L170 141L169 140M205 140L206 141L205 140M48.3333 141.667L48.6667 142.333L48.3333 141.667M58 141L59 142L58 141z"/>
<path style="fill:#f68d17; stroke:none;" d="M147 141L148 142L147 141z"/>
<path style="fill:#aba9a7; stroke:none;" d="M156 141L157 142L156 141M165.333 141.667L165.667 142.333L165.333 141.667M59 142L60 143L59 142M208 142L209 143L208 142M49 143L50 144L49 143M61 143L62 144L61 143M157.333 143.667L157.667 144.333L157.333 143.667M220 143L221 144L220 143M267 143L267 146L268 146L267 143M62 144L63 145L62 144M107.333 145.667L107.667 146.333L107.333 145.667M166.333 145.667L166.667 146.333L166.333 145.667z"/>
<path style="fill:#f68d17; stroke:none;" d="M7 146L7 152L8 152L7 146z"/>
<path style="fill:#aba9a7; stroke:none;" d="M67 146L68 147L67 146M101.667 146.333L102.333 146.667L101.667 146.333M158.333 146.667L158.667 147.333L158.333 146.667M222 146L223 147L222 146M71.6667 147.333L72.3333 147.667L71.6667 147.333M93 147L93 148L96 148L93 147M106 147L107 148L106 147M213 147L214 148L213 147M54 148L55 149L54 148M105 148L106 149L105 148M223.333 148.667L223.667 149.333L223.333 148.667M55 149L56 150L55 149M104 149L105 150L104 149M57 150L58 151L57 150M159.333 150.667L159.667 151.333L159.333 150.667M215 150L216 151L215 150M58 151L59 152L58 151M139 151L140 152L139 151M222 151L223 152L222 151z"/>
<path style="fill:#f68d17; stroke:none;" d="M266 151L266 154L267 154L266 151z"/>
<path style="fill:#aba9a7; stroke:none;" d="M7 152L8 153L7 152M60 152L61 153L60 152z"/>
<path style="fill:#f68d17; stroke:none;" d="M136 152L137 153L136 152z"/>
<path style="fill:#aba9a7; stroke:none;" d="M140.667 152.333L141.333 152.667L140.667 152.333M217 152L218 153L217 152M63 153L64 154L63 153M100 153L101 154L100 153z"/>
<path style="fill:#f68d17; stroke:none;" d="M135 153L136 154L135 153z"/>
<path style="fill:#aba9a7; stroke:none;" d="M142.667 153.333L143.333 153.667L142.667 153.333M66.6667 154.333L67.3333 154.667L66.6667 154.333z"/>
<path style="fill:#f68d17; stroke:none;" d="M134 154L135 155L134 154z"/>
<path style="fill:#aba9a7; stroke:none;" d="M144.667 154.333L145.333 154.667L144.667 154.333M158 154L159 155L158 154z"/>
<path style="fill:#f68d17; stroke:none;" d="M8.33333 155.667L8.66667 156.333L8.33333 155.667z"/>
<path style="fill:#aba9a7; stroke:none;" d="M70.6667 155.333L71.3333 155.667L70.6667 155.333M73.6667 155.333L74.3333 155.667L73.6667 155.333M91.6667 155.333L92.3333 155.667L91.6667 155.333M94 155L94 156L97 156L94 155z"/>
<path style="fill:#f68d17; stroke:none;" d="M133 155L134 156L133 155z"/>
<path style="fill:#aba9a7; stroke:none;" d="M146 155L146 156L149 156L146 155M166.333 155.667L166.667 156.333L166.333 155.667M79 156L79 157L86 157L79 156M150 156L150 157L157 157L150 156z"/>
<path style="fill:#f68d17; stroke:none;" d="M131 157L132 158L131 157M265 157L265 160L266 160L265 157M130 158L131 159L130 158z"/>
<path style="fill:#aba9a7; stroke:none;" d="M134.667 158.333L135.333 158.667L134.667 158.333z"/>
<path style="fill:#f68d17; stroke:none;" d="M129 159L130 160L129 159z"/>
<path style="fill:#aba9a7; stroke:none;" d="M133 159L134 160L133 159M136 159L137 160L136 159M165 159L166 160L165 159z"/>
<path style="fill:#f68d17; stroke:none;" d="M128 160L129 161L128 160z"/>
<path style="fill:#aba9a7; stroke:none;" d="M164 160L165 161L164 160z"/>
<path style="fill:#f68d17; stroke:none;" d="M9 161L10 162L9 161M127 161L128 162L127 161M126 162L127 163L126 162z"/>
<path style="fill:#aba9a7; stroke:none;" d="M135 162L136 163L135 162M162 162L163 163L162 162z"/>
<path style="fill:#f68d17; stroke:none;" d="M264.333 162.667L264.667 163.333L264.333 162.667M125 163L126 164L125 163z"/>
<path style="fill:#aba9a7; stroke:none;" d="M130 163L131 164L130 163M143.333 163.667L143.667 164.333L143.333 163.667M145 163L146 164L145 163M161 163L162 164L161 163z"/>
<path style="fill:#f68d17; stroke:none;" d="M10 164L11 165L10 164M124 164L125 165L124 164z"/>
<path style="fill:#aba9a7; stroke:none;" d="M129 164L130 165L129 164M149.667 164.333L150.333 164.667L149.667 164.333M157.667 164.333L158.333 164.667L157.667 164.333M10 165L11 166L10 165z"/>
<path style="fill:#f68d17; stroke:none;" d="M123 165L124 166L123 165M122 166L123 167L122 166z"/>
<path style="fill:#aba9a7; stroke:none;" d="M128 166L129 167L128 166M134.333 166.667L134.667 167.333L134.333 166.667z"/>
<path style="fill:#f68d17; stroke:none;" d="M263.333 166.667L263.667 167.333L263.333 166.667M121 167L122 168L121 167z"/>
<path style="fill:#aba9a7; stroke:none;" d="M127 167L128 168L127 167M142.333 167.667L142.667 168.333L142.333 167.667z"/>
<path style="fill:#f68d17; stroke:none;" d="M11.3333 168.667L11.6667 169.333L11.3333 168.667M120 168L121 169L120 168z"/>
<path style="fill:#aba9a7; stroke:none;" d="M263 168L264 169L263 168z"/>
<path style="fill:#f68d17; stroke:none;" d="M119 169L120 170L119 169M118 170L119 171L118 170z"/>
<path style="fill:#aba9a7; stroke:none;" d="M125 170L126 171L125 170z"/>
<path style="fill:#f68d17; stroke:none;" d="M262 170L263 171L262 170M12.3333 171.667L12.6667 172.333L12.3333 171.667M117 171L118 172L117 171z"/>
<path style="fill:#aba9a7; stroke:none;" d="M124 171L125 172L124 171M133.333 171.667L133.667 172.333L133.333 171.667M141 171L141 174L142 174L141 171M12 173L13 174L12 173z"/>
<path style="fill:#f68d17; stroke:none;" d="M115 173L116 174L115 173M261.333 173.667L261.667 174.333L261.333 173.667M114 174L115 175L114 174z"/>
<path style="fill:#aba9a7; stroke:none;" d="M122 174L123 175L122 174z"/>
<path style="fill:#f68d17; stroke:none;" d="M13 175L14 176L13 175M113 175L114 176L113 175M112 176L113 177L112 176z"/>
<path style="fill:#aba9a7; stroke:none;" d="M140 176L140 180L141 180L140 176z"/>
<path style="fill:#f68d17; stroke:none;" d="M260 176L261 177L260 176M14.3333 177.667L14.6667 178.333L14.3333 177.667M111 177L112 178L111 177z"/>
<path style="fill:#aba9a7; stroke:none;" d="M120 177L121 178L120 177M132 177L132 180L133 180L132 177z"/>
<path style="fill:#f68d17; stroke:none;" d="M110 178L111 179L110 178M109 179L110 180L109 179M259 179L260 180L259 179M15 180L16 181L15 180M108 180L109 181L108 180z"/>
<path style="fill:#aba9a7; stroke:none;" d="M118 180L119 181L118 180M108 181L109 182L108 181z"/>
<path style="fill:#f68d17; stroke:none;" d="M258 181L259 182L258 181z"/>
<path style="fill:#aba9a7; stroke:none;" d="M117 182L118 183L117 182z"/>
<path style="fill:#f68d17; stroke:none;" d="M16 183L17 184L16 183z"/>
<path style="fill:#aba9a7; stroke:none;" d="M107 183L108 184L107 183M131 183L131 192L132 192L131 183z"/>
<path style="fill:#f68d17; stroke:none;" d="M257.333 183.667L257.667 184.333L257.333 183.667M17 185L18 186L17 185z"/>
<path style="fill:#aba9a7; stroke:none;" d="M106 185L107 186L106 185M115 185L116 186L115 185z"/>
<path style="fill:#f68d17; stroke:none;" d="M256 186L257 187L256 186M18 187L19 188L18 187z"/>
<path style="fill:#aba9a7; stroke:none;" d="M105.333 187.667L105.667 188.333L105.333 187.667M114 187L115 188L114 187M256 187L257 188L256 187M18 188L19 189L18 188z"/>
<path style="fill:#f68d17; stroke:none;" d="M255 188L256 189L255 188M19 189L20 190L19 189z"/>
<path style="fill:#aba9a7; stroke:none;" d="M113 189L114 190L113 189M104.333 190.667L104.667 191.333L104.333 190.667z"/>
<path style="fill:#f68d17; stroke:none;" d="M20 191L21 192L20 191z"/>
<path style="fill:#aba9a7; stroke:none;" d="M112 192L113 193L112 192z"/>
<path style="fill:#f68d17; stroke:none;" d="M253 192L254 193L253 192M21 193L22 194L21 193z"/>
<path style="fill:#aba9a7; stroke:none;" d="M21 194L22 195L21 194M103.333 194.667L103.667 195.333L103.333 194.667z"/>
<path style="fill:#f68d17; stroke:none;" d="M252 194L253 195L252 194M22 195L23 196L22 195z"/>
<path style="fill:#aba9a7; stroke:none;" d="M132.333 195.667L132.667 196.333L132.333 195.667M140.333 195.667L140.667 196.333L140.333 195.667z"/>
<path style="fill:#f68d17; stroke:none;" d="M251 196L252 197L251 196M23 197L24 198L23 197z"/>
<path style="fill:#aba9a7; stroke:none;" d="M111 197L112 198L111 197z"/>
<path style="fill:#f68d17; stroke:none;" d="M250 198L251 199L250 198z"/>
<path style="fill:#aba9a7; stroke:none;" d="M141 199L142 200L141 199z"/>
<path style="fill:#f68d17; stroke:none;" d="M249 199L250 200L249 199M25 200L26 201L25 200z"/>
<path style="fill:#aba9a7; stroke:none;" d="M133.333 200.667L133.667 201.333L133.333 200.667M103 201L103 204L104 204L103 201M111 201L112 202L111 201z"/>
<path style="fill:#f68d17; stroke:none;" d="M248 201L249 202L248 201z"/>
<path style="fill:#aba9a7; stroke:none;" d="M142 202L143 203L142 202z"/>
<path style="fill:#f68d17; stroke:none;" d="M27 203L28 204L27 203z"/>
<path style="fill:#aba9a7; stroke:none;" d="M134.333 203.667L134.667 204.333L134.333 203.667M247 203L248 204L247 203M143 204L144 205L143 204z"/>
<path style="fill:#f68d17; stroke:none;" d="M246 204L247 205L246 204M28 205L29 206L28 205z"/>
<path style="fill:#aba9a7; stroke:none;" d="M112 205L113 206L112 205z"/>
<path style="fill:#f68d17; stroke:none;" d="M29 206L30 207L29 206z"/>
<path style="fill:#aba9a7; stroke:none;" d="M104.333 206.667L104.667 207.333L104.333 206.667M135 206L136 207L135 206M245 206L246 207L245 206z"/>
<path style="fill:#f68d17; stroke:none;" d="M244 207L245 208L244 207M30 208L31 209L30 208z"/>
<path style="fill:#aba9a7; stroke:none;" d="M113 208L114 209L113 208M136 208L137 209L136 208M146 208L147 209L146 208z"/>
<path style="fill:#f68d17; stroke:none;" d="M243 208L244 209L243 208M31 209L32 210L31 209z"/>
<path style="fill:#aba9a7; stroke:none;" d="M105.333 209.667L105.667 210.333L105.333 209.667M147 209L148 210L147 209M114 210L115 211L114 210M138 211L139 212L138 211M150 211L151 212L150 211z"/>
<path style="fill:#f68d17; stroke:none;" d="M241 211L242 212L241 211z"/>
<path style="fill:#aba9a7; stroke:none;" d="M33 212L34 213L33 212M106 212L107 213L106 212M115 212L116 213L115 212M139 212L140 213L139 212M151 212L152 213L151 212z"/>
<path style="fill:#f68d17; stroke:none;" d="M240 212L241 213L240 212M34 213L35 214L34 213z"/>
<path style="fill:#aba9a7; stroke:none;" d="M140 213L141 214L140 213M153 213L154 214L153 213z"/>
<path style="fill:#f68d17; stroke:none;" d="M35 214L36 215L35 214z"/>
<path style="fill:#aba9a7; stroke:none;" d="M107 214L108 215L107 214M141 214L142 215L141 214M154 214L155 215L154 214M117 215L118 216L117 215M238 215L239 216L238 215M108 216L109 217L108 216M118 216L119 217L118 216M143 216L144 217L143 216M155.333 216.667L155.667 217.333L155.333 216.667M237 216L238 217L237 216M144 217L145 218L144 217z"/>
<path style="fill:#f68d17; stroke:none;" d="M236 217L237 218L236 217z"/>
<path style="fill:#aba9a7; stroke:none;" d="M38 218L39 219L38 218M109 218L110 219L109 218M146 218L147 219L146 218z"/>
<path style="fill:#f68d17; stroke:none;" d="M235 218L236 219L235 218M39 219L40 220L39 219z"/>
<path style="fill:#aba9a7; stroke:none;" d="M110 219L111 220L110 219M147 219L148 220L147 219z"/>
<path style="fill:#f68d17; stroke:none;" d="M234 219L235 220L234 219M40 220L41 221L40 220z"/>
<path style="fill:#aba9a7; stroke:none;" d="M149 220L150 221L149 220z"/>
<path style="fill:#f68d17; stroke:none;" d="M41 221L42 222L41 221M42 222L43 223L42 222z"/>
<path style="fill:#aba9a7; stroke:none;" d="M113 222L114 223L113 222M117 222L118 223L117 222z"/>
<path style="fill:#f68d17; stroke:none;" d="M43 223L44 224L43 223z"/>
<path style="fill:#aba9a7; stroke:none;" d="M115 223L116 224L115 223z"/>
<path style="fill:#f68d17; stroke:none;" d="M44 224L45 225L44 224M45 225L46 226L45 225M46 226L47 227L46 226M47 227L48 228L47 227z"/>
<path style="fill:#aba9a7; stroke:none;" d="M48 228L49 229L48 228z"/>
<path style="fill:#f68d17; stroke:none;" d="M225 228L226 229L225 228z"/>
<path style="fill:#aba9a7; stroke:none;" d="M49 229L50 230L49 229z"/>
<path style="fill:#f68d17; stroke:none;" d="M224 229L225 230L224 229M223 230L224 231L223 230z"/>
<path style="fill:#aba9a7; stroke:none;" d="M222 231L223 232L222 231z"/>
<path style="fill:#f68d17; stroke:none;" d="M53 232L54 233L53 232M54 233L55 234L54 233z"/>
<path style="fill:#aba9a7; stroke:none;" d="M55 234L56 235L55 234z"/>
<path style="fill:#f68d17; stroke:none;" d="M218 234L219 235L218 234M217 235L218 236L217 235M58 236L59 237L58 236z"/>
<path style="fill:#aba9a7; stroke:none;" d="M216 236L217 237L216 236z"/>
<path style="fill:#f68d17; stroke:none;" d="M59 237L60 238L59 237M214 237L215 238L214 237M61 238L62 239L61 238z"/>
<path style="fill:#aba9a7; stroke:none;" d="M213 238L214 239L213 238z"/>
<path style="fill:#f68d17; stroke:none;" d="M62 239L63 240L62 239M211 239L212 240L211 239M210 240L211 241L210 240M65 241L66 242L65 241z"/>
<path style="fill:#aba9a7; stroke:none;" d="M66 242L67 243L66 242z"/>
<path style="fill:#f68d17; stroke:none;" d="M67 242L68 243L67 242M207 242L208 243L207 242M68 243L69 244L68 243M205 243L206 244L205 243M70 244L71 245L70 244M203 244L204 245L203 244z"/>
<path style="fill:#aba9a7; stroke:none;" d="M204 244L205 245L204 244M71 245L72 246L71 245z"/>
<path style="fill:#f68d17; stroke:none;" d="M72 245L73 246L72 245z"/>
<path style="fill:#aba9a7; stroke:none;" d="M202 245L203 246L202 245M73 246L74 247L73 246z"/>
<path style="fill:#f68d17; stroke:none;" d="M200 246L201 247L200 246M75 247L76 248L75 247M198 247L199 248L198 247M77 248L78 249L77 248M196 248L197 249L196 248M79 249L80 250L79 249M194 249L195 250L194 249M81.6667 250.333L82.3333 250.667L81.6667 250.333M192 250L193 251L192 250z"/>
<path style="fill:#aba9a7; stroke:none;" d="M83 251L84 252L83 251z"/>
<path style="fill:#f68d17; stroke:none;" d="M84 251L85 252L84 251M190 251L191 252L190 251z"/>
<path style="fill:#aba9a7; stroke:none;" d="M85 252L86 253L85 252z"/>
<path style="fill:#f68d17; stroke:none;" d="M86 252L87 253L86 252M187 252L188 253L187 252z"/>
<path style="fill:#aba9a7; stroke:none;" d="M188 252L189 253L188 252z"/>
<path style="fill:#f68d17; stroke:none;" d="M88 253L89 254L88 253M185 253L186 254L185 253z"/>
<path style="fill:#aba9a7; stroke:none;" d="M90 254L91 255L90 254z"/>
<path style="fill:#f68d17; stroke:none;" d="M91 254L92 255L91 254M182 254L183 255L182 254z"/>
<path style="fill:#aba9a7; stroke:none;" d="M183 254L184 255L183 254M93 255L94 256L93 255z"/>
<path style="fill:#f68d17; stroke:none;" d="M94 255L95 256L94 255M179.667 255.333L180.333 255.667L179.667 255.333z"/>
<path style="fill:#aba9a7; stroke:none;" d="M96 256L97 257L96 256z"/>
<path style="fill:#f68d17; stroke:none;" d="M97 256L98 257L97 256M176 256L177 257L176 256z"/>
<path style="fill:#aba9a7; stroke:none;" d="M177 256L178 257L177 256z"/>
<path style="fill:#f68d17; stroke:none;" d="M99.6667 257.333L100.333 257.667L99.6667 257.333M173.667 257.333L174.333 257.667L173.667 257.333z"/>
<path style="fill:#aba9a7; stroke:none;" d="M102 258L103 259L102 258z"/>
<path style="fill:#f68d17; stroke:none;" d="M103.667 258.333L104.333 258.667L103.667 258.333M169.667 258.333L170.333 258.667L169.667 258.333z"/>
<path style="fill:#aba9a7; stroke:none;" d="M171 258L172 259L171 258M106 259L107 260L106 259z"/>
<path style="fill:#f68d17; stroke:none;" d="M107 259L107 260L110 260L107 259M164 259L164 260L167 260L164 259z"/>
<path style="fill:#aba9a7; stroke:none;" d="M167 259L168 260L167 259M111.667 260.333L112.333 260.667L111.667 260.333z"/>
<path style="fill:#f68d17; stroke:none;" d="M113.667 260.333L114.333 260.667L113.667 260.333M159.667 260.333L160.333 260.667L159.667 260.333z"/>
<path style="fill:#aba9a7; stroke:none;" d="M161 260L161 261L164 261L161 260M116 261L117 262L116 261M118 261L119 262L118 261z"/>
<path style="fill:#f68d17; stroke:none;" d="M119 261L119 262L124 262L119 261M150 261L150 262L154 262L150 261z"/>
<path style="fill:#aba9a7; stroke:none;" d="M154 261L154 262L157 262L154 261M122 262L122 263L125 263L122 262z"/>
<path style="fill:#f68d17; stroke:none;" d="M125 262L125 263L128 263L125 262z"/>
<path style="fill:#aba9a7; stroke:none;" d="M128.667 262.333L129.333 262.667L128.667 262.333z"/>
<path style="fill:#f68d17; stroke:none;" d="M130 262L130 263L133 263L130 262M134 262L134 263L140 263L134 262M142 262L142 263L145 263L142 262z"/>
<path style="fill:#aba9a7; stroke:none;" d="M145 262L146 263L145 262z"/>
<path style="fill:#f68d17; stroke:none;" d="M146 262L146 263L149 263L146 262z"/>
<path style="fill:#aba9a7; stroke:none;" d="M149.667 262.333L150.333 262.667L149.667 262.333z"/>
</svg>
